<?xml version="1.0" encoding="utf-8"?>
<!-- Generator: Adobe Illustrator 28.0.0, SVG Export Plug-In . SVG Version: 6.00 Build 0)  -->
<svg version="1.1" id="youtube" xmlns="http://www.w3.org/2000/svg" xmlns:xlink="http://www.w3.org/1999/xlink" x="0px" y="0px"
	 viewBox="0 0 24 24" style="enable-background:new 0 0 24 24;" xml:space="preserve">
<style type="text/css">
	.st0{fill:none;}
	.st1{fill-rule:evenodd;clip-rule:evenodd;fill:#171717;}
</style>
<g transform="translate(-40 -40)">
	<rect x="40" y="40" class="st0" width="24" height="24"/>
	<path class="st1" d="M42.4,58.6c-0.4-0.3-0.6-0.8-0.8-1.3c-0.2-0.6-0.3-1.2-0.3-1.2c0,0,0,0,0,0c0,0-0.2-1.7-0.2-3.3v-1.5
		c0-1.7,0.2-3.3,0.2-3.3c0,0,0,0,0-0.1c0,0,0.4-1.8,1.1-2.5c0.9-0.9,1.9-1,2.5-1.1c0,0,0.1,0,0.1,0c2.9-0.2,7-0.2,7-0.2s4.2,0,7,0.2
		c0.6,0,1.6,0,2.6,1.1c0.4,0.3,0.6,0.8,0.8,1.3c0.2,0.6,0.3,1.2,0.3,1.2c0,0,0,0,0,0c0,0,0.2,1.6,0.2,3.3v1.5c0,1.7-0.2,3.3-0.2,3.3
		c0,0,0,0,0,0.1c0,0-0.4,1.8-1.1,2.5c-0.9,0.9-1.9,1-2.5,1.1l-0.1,0c-2.9,0.3-7.1,0.3-7.1,0.3s-5.3,0-6.9-0.2c0,0-0.1,0-0.1,0
		C44.5,59.6,43.3,59.6,42.4,58.6z M60.9,48.1c0,0-0.1-0.4-0.2-0.8c-0.1-0.2-0.2-0.4-0.3-0.6c0,0-0.1,0-0.1-0.1
		c-0.5-0.6-1.1-0.5-1.3-0.5l-0.1,0c-2.8-0.2-6.9-0.2-6.9-0.2s-4.1,0-6.9,0.2c-0.3,0-0.9,0.1-1.5,0.6c-0.2,0.2-0.3,0.4-0.3,0.6
		c-0.1,0.4-0.2,0.8-0.2,0.9c0,0.2-0.2,1.6-0.2,3.1v1.5c0,1.5,0.2,3.2,0.2,3.1c0,0,0.1,0.4,0.2,0.8c0.1,0.2,0.2,0.4,0.3,0.6
		c0,0,0.1,0,0.1,0.1c0.3,0.3,0.6,0.4,0.9,0.5c0.3,0,0.5,0.1,0.7,0.1c1.6,0.2,6.7,0.2,6.7,0.2s4.1,0,6.9-0.2c0.3,0,0.9,0,1.5-0.6
		c0.2-0.2,0.3-0.4,0.3-0.6c0.1-0.4,0.2-0.8,0.2-0.9c0-0.2,0.2-1.6,0.2-3.1v-1.5C61.1,49.7,60.9,48.2,60.9,48.1z M55.9,52.6
		c0.3-0.2,0.5-0.5,0.5-0.8c0-0.3-0.2-0.7-0.5-0.8l-5.6-2.8c-0.3-0.1-0.6-0.1-0.9,0S49,48.7,49,49v5.6c0,0.3,0.2,0.6,0.4,0.8
		s0.6,0.2,0.9,0L55.9,52.6z M50.8,53.1l2.7-1.3l-2.7-1.3V53.1z"/>
</g>
</svg>
