<svg width="153" height="30" viewBox="0 0 153 30" fill="none" xmlns="http://www.w3.org/2000/svg">
<path fill-rule="evenodd" clip-rule="evenodd" d="M0 10.2742L17.3285 0.822266L34.6571 10.2742V19.705L31.5064 21.4317V11.9913L28.685 13.529L28.6847 13.5283L25.2052 15.4257V15.4255L24.9382 15.5713L23.068 16.5911L23.0686 16.5921L17.3285 19.7261L9.45193 15.4255V15.4274L6.30129 13.7094V13.7084L0 10.2742ZM25.2052 17.7639V21.2857L17.3285 25.5863L9.45193 21.2857V17.7656L6.30129 16.0476V23.1603L17.3285 29.1781L27.5857 23.5806L28.3558 23.1585V16.0459L25.2052 17.7639ZM17.3285 16.1344L28.0722 10.2742L17.3285 4.414L6.58485 10.2742L17.3285 16.1344Z" fill="#3738E2"/>
<path fill-rule="evenodd" clip-rule="evenodd" d="M153 7.91835C153 8.98122 152.11 9.87107 151.023 9.87107C149.96 9.87107 149.07 8.98122 149.07 7.91835C149.07 6.85548 149.96 5.94092 151.023 5.94092C152.11 5.94092 153 6.85548 153 7.91835ZM152.629 11.3541V23.7131H149.441V11.3541H152.629ZM42.8964 6.41056V23.7131H49.7679C52.1409 23.7131 54.1183 22.8727 55.7002 21.2166C57.3069 19.5605 58.0979 17.5089 58.0979 15.0618C58.0979 12.6148 57.3069 10.5632 55.7002 8.90707C54.1183 7.25097 52.1409 6.41056 49.7679 6.41056H42.8964ZM46.3074 20.4503V9.67332H49.7679C51.2757 9.67332 52.4869 10.1677 53.4262 11.1811C54.3655 12.1698 54.8351 13.4552 54.8351 15.0618C54.8351 16.6685 54.3655 17.9538 53.4262 18.9673C52.4869 19.956 51.2757 20.4503 49.7679 20.4503H46.3074ZM69.762 12.8125C68.798 11.6013 67.4633 11.0081 65.733 11.0081C64.0769 11.0081 62.668 11.6508 61.4815 12.9114C60.3198 14.172 59.7266 15.7045 59.7266 17.5336C59.7266 19.3627 60.3198 20.92 61.4815 22.1806C62.668 23.4412 64.0769 24.0591 65.733 24.0591C67.4633 24.0591 68.798 23.4659 69.762 22.2547V23.7131H72.9506V11.3541H69.762V12.8125ZM63.8792 20.0548C63.2365 19.3875 62.9152 18.5471 62.9152 17.5336C62.9152 16.5202 63.2365 15.6798 63.8792 15.0371C64.5218 14.3697 65.3375 14.0484 66.3262 14.0484C67.315 14.0484 68.1306 14.3697 68.7733 15.0371C69.4407 15.6798 69.762 16.5202 69.762 17.5336C69.762 18.5471 69.4407 19.3875 68.7733 20.0548C68.1306 20.6975 67.315 21.0188 66.3262 21.0188C65.3375 21.0188 64.5218 20.6975 63.8792 20.0548ZM88.2752 17.5336C88.2752 19.3627 87.6325 20.92 86.3719 22.1806C85.1113 23.4412 83.554 24.0591 81.7249 24.0591C79.8958 24.0591 78.3386 23.4412 77.0779 22.1806C75.8173 20.92 75.1994 19.3627 75.1994 17.5336C75.1994 15.7045 75.8173 14.172 77.0779 12.9114C78.3386 11.6508 79.8958 11.0081 81.7249 11.0081C83.554 11.0081 85.1113 11.6508 86.3719 12.9114C87.6325 14.172 88.2752 15.7045 88.2752 17.5336ZM78.388 17.5336C78.388 18.5223 78.7093 19.338 79.3273 19.9807C79.9699 20.6234 80.7609 20.9447 81.7249 20.9447C82.6889 20.9447 83.4799 20.6234 84.1225 19.9807C84.7652 19.338 85.0865 18.5223 85.0865 17.5336C85.0865 16.5449 84.7652 15.7292 84.1225 15.0865C83.4799 14.4439 82.6889 14.1225 81.7249 14.1225C80.7609 14.1225 79.9699 14.4439 79.3273 15.0865C78.7093 15.7292 78.388 16.5449 78.388 17.5336ZM97.3221 11.3541H94.529V9.11362H94.5314V7.88255H91.3371V9.11362H91.3404V11.3541H89.1899V14.4192H91.3404V19.5605C91.3404 22.9468 92.947 24.2075 97.3221 23.7131V20.8211C95.493 20.92 94.529 20.8953 94.529 19.5605V14.4192H97.3221V11.3541ZM104.548 11.0081C106.278 11.0081 107.613 11.6013 108.577 12.8125V11.3541H111.765V23.7131H108.577V22.2547C107.613 23.4659 106.278 24.0591 104.548 24.0591C102.892 24.0591 101.483 23.4412 100.296 22.1806C99.1346 20.92 98.5414 19.3627 98.5414 17.5336C98.5414 15.7045 99.1346 14.172 100.296 12.9114C101.483 11.6508 102.892 11.0081 104.548 11.0081ZM101.73 17.5336C101.73 18.5471 102.051 19.3875 102.694 20.0548C103.337 20.6975 104.152 21.0188 105.141 21.0188C106.13 21.0188 106.945 20.6975 107.588 20.0548C108.256 19.3875 108.577 18.5471 108.577 17.5336C108.577 16.5202 108.256 15.6798 107.588 15.0371C106.945 14.3697 106.13 14.0484 105.141 14.0484C104.152 14.0484 103.337 14.3697 102.694 15.0371C102.051 15.6798 101.73 16.5202 101.73 17.5336ZM125.187 22.1806C126.447 20.92 127.09 19.3627 127.09 17.5336C127.09 15.7045 126.447 14.172 125.187 12.9114C123.926 11.6508 122.369 11.0081 120.54 11.0081C118.711 11.0081 117.153 11.6508 115.893 12.9114C114.632 14.172 114.014 15.7045 114.014 17.5336C114.014 19.3627 114.632 20.92 115.893 22.1806C117.153 23.4412 118.711 24.0591 120.54 24.0591C122.369 24.0591 123.926 23.4412 125.187 22.1806ZM118.142 19.9807C117.524 19.338 117.203 18.5223 117.203 17.5336C117.203 16.5449 117.524 15.7292 118.142 15.0865C118.785 14.4439 119.576 14.1225 120.54 14.1225C121.504 14.1225 122.295 14.4439 122.937 15.0865C123.58 15.7292 123.901 16.5449 123.901 17.5336C123.901 18.5223 123.58 19.338 122.937 19.9807C122.295 20.6234 121.504 20.9447 120.54 20.9447C119.576 20.9447 118.785 20.6234 118.142 19.9807ZM131.68 20.4503C132.496 21.266 132.496 22.6008 131.68 23.4165C130.865 24.2322 129.53 24.2322 128.714 23.4165C127.899 22.6008 127.899 21.266 128.714 20.4503C129.53 19.6346 130.865 19.6346 131.68 20.4503ZM143.361 12.8125C142.397 11.6013 141.062 11.0081 139.332 11.0081C137.675 11.0081 136.267 11.6508 135.08 12.9114C133.918 14.172 133.325 15.7045 133.325 17.5336C133.325 19.3627 133.918 20.92 135.08 22.1806C136.267 23.4412 137.675 24.0591 139.332 24.0591C141.062 24.0591 142.397 23.4659 143.361 22.2547V23.7131H146.549V11.3541H143.361V12.8125ZM137.478 20.0548C136.835 19.3875 136.514 18.5471 136.514 17.5336C136.514 16.5202 136.835 15.6798 137.478 15.0371C138.12 14.3697 138.936 14.0484 139.925 14.0484C140.913 14.0484 141.729 14.3697 142.372 15.0371C143.039 15.6798 143.361 16.5202 143.361 17.5336C143.361 18.5471 143.039 19.3875 142.372 20.0548C141.729 20.6975 140.913 21.0188 139.925 21.0188C138.936 21.0188 138.12 20.6975 137.478 20.0548Z" fill="#171717"/>
</svg>
